<svg xmlns="http://www.w3.org/2000/svg" viewBox="0 0 62 62"><defs><style>.cls-1{fill:#1a1a1a;}</style></defs><g id="レイヤー_2" data-name="レイヤー 2"><g id="design1"><path class="cls-1" d="M34.11,38.14h-5V35.46a6.21,6.21,0,0,1,.42-2.62,9.69,9.69,0,0,1,1.82-2.27l3.22-3.21a3.89,3.89,0,0,0,1-2.73,3.69,3.69,0,0,0-1.06-2.7,3.64,3.64,0,0,0-2.73-1.08,4,4,0,0,0-2.79,1,4.19,4.19,0,0,0-1.3,2.75H22.41a9,9,0,0,1,3.06-6.13A9.69,9.69,0,0,1,32,16.27a9.36,9.36,0,0,1,6.38,2.14,7.47,7.47,0,0,1,2.46,6,6.67,6.67,0,0,1-1.45,4.4c-.56.7-1,1.2-1.27,1.5L37,31.39c-.48.45-.9.85-1.23,1.19s-.61.62-.82.85a4.27,4.27,0,0,0-.79,2.73Zm-2.4,9.77A3.38,3.38,0,0,1,29.32,47a3,3,0,0,1-1-2.28,3.1,3.1,0,0,1,1-2.31,3.28,3.28,0,0,1,2.38-1,3.41,3.41,0,0,1,2.4.94,3,3,0,0,1,1,2.29,3.1,3.1,0,0,1-1,2.31A3.26,3.26,0,0,1,31.71,47.91Z"/><path class="cls-1" d="M31,5A26,26,0,1,1,5,31,26,26,0,0,1,31,5m0-5A31,31,0,1,0,62,31,31,31,0,0,0,31,0Z"/></g></g></svg>