<svg xmlns="http://www.w3.org/2000/svg" xmlns:xlink="http://www.w3.org/1999/xlink" viewBox="0 0 40 40"><defs><style>.cls-1{fill:#fff;}.cls-2{fill:#1a1a1a;}</style><symbol id="新規シンボル_11" data-name="新規シンボル 11" viewBox="0 0 60 60"><circle class="cls-1" cx="30" cy="30" r="30"/><path class="cls-2" d="M48,29.14C48,21.07,40,14.5,30,14.5S12,21.07,12,29.14c0,7.24,6.42,13.3,15.09,14.45.58.12,1.38.38,1.59.89a3.59,3.59,0,0,1,.05,1.63s-.21,1.27-.25,1.54c-.08.46-.37,1.79,1.56,1s10.39-6.12,14.18-10.48h0c2.62-2.87,3.87-5.78,3.87-9"/><path class="cls-1" d="M26.33,25.24H25.07a.35.35,0,0,0-.35.35v7.86a.34.34,0,0,0,.35.35h1.26a.35.35,0,0,0,.36-.35V25.59a.36.36,0,0,0-.36-.35"/><path class="cls-1" d="M35,25.24H33.78a.35.35,0,0,0-.35.35v4.67l-3.6-4.86,0,0h0l0,0h-1.5a.35.35,0,0,0-.35.35v7.86a.34.34,0,0,0,.35.35h1.26a.34.34,0,0,0,.35-.35V28.78l3.61,4.88.09.08h0l0,0H35a.35.35,0,0,0,.36-.35V25.59a.36.36,0,0,0-.36-.35"/><path class="cls-1" d="M23.28,31.84H19.84V25.59a.35.35,0,0,0-.35-.35H18.23a.35.35,0,0,0-.35.35v7.86h0a.37.37,0,0,0,.09.25h0a.37.37,0,0,0,.25.09h5.05a.34.34,0,0,0,.35-.35V32.19a.34.34,0,0,0-.35-.35"/><path class="cls-1" d="M42,27.21a.35.35,0,0,0,.35-.35V25.59a.35.35,0,0,0-.35-.35H37a.37.37,0,0,0-.25.1h0a.34.34,0,0,0-.09.24h0v7.86h0a.37.37,0,0,0,.09.25h0a.37.37,0,0,0,.25.09H42a.34.34,0,0,0,.35-.35V32.19a.34.34,0,0,0-.35-.35H38.6V30.51H42a.35.35,0,0,0,.35-.36V28.89a.35.35,0,0,0-.35-.35H38.6V27.21Z"/></symbol></defs><g id="レイヤー_2" data-name="レイヤー 2"><g id="design2"><use id="ico_line_wh" width="60" height="60" transform="scale(0.67)" xlink:href="#新規シンボル_11"/></g></g></svg>