<svg xmlns="http://www.w3.org/2000/svg" xmlns:xlink="http://www.w3.org/1999/xlink" viewBox="0 0 50 50"><defs><style>.cls-1{fill:#fff;}.cls-2{fill:#1a1a1a;}</style><symbol id="新規シンボル_2" data-name="新規シンボル 2" viewBox="0 0 51.97 96.12"><path class="cls-1" d="M50,0,37.55,0c-14,0-23.06,9.28-23.06,23.66v10.9H2a2,2,0,0,0-2,2V52.33a2,2,0,0,0,2,2H14.49V94.16a2,2,0,0,0,2,2H32.8a2,2,0,0,0,2-2V54.29H49.42a2,2,0,0,0,2-2V36.52a1.94,1.94,0,0,0-.57-1.38,2,2,0,0,0-1.39-.58H34.76V25.32c0-4.45,1.06-6.7,6.85-6.7H50a2,2,0,0,0,2-2V2A2,2,0,0,0,50,0Z"/></symbol></defs><g id="レイヤー_2" data-name="レイヤー 2"><g id="design2"><g id="ico_fb"><circle class="cls-2" cx="25" cy="25" r="25"/><use width="51.97" height="96.12" transform="translate(18.01 12.35) scale(0.27)" xlink:href="#新規シンボル_2"/></g></g></g></svg>