<svg xmlns="http://www.w3.org/2000/svg" xmlns:xlink="http://www.w3.org/1999/xlink" viewBox="0 0 50 50"><defs><style>.cls-1{fill:#fff;}.cls-2{fill:#1a1a1a;}</style><symbol id="新規シンボル_10" data-name="新規シンボル 10" viewBox="0 0 36.09 34.38"><g id="TYPE_A" data-name="TYPE A"><path class="cls-1" d="M36.08,14.64C36.08,6.57,28,0,18,0S0,6.57,0,14.64c0,7.24,6.42,13.3,15.09,14.45.59.12,1.39.38,1.59.89a3.74,3.74,0,0,1,.06,1.63s-.21,1.27-.26,1.54c-.08.46-.36,1.79,1.56,1S28.43,28,32.22,23.65h0a13,13,0,0,0,3.86-9"/><path class="cls-2" d="M14.38,10.74H13.11a.35.35,0,0,0-.35.35V19a.35.35,0,0,0,.35.35h1.27a.35.35,0,0,0,.35-.35V11.09a.35.35,0,0,0-.35-.35"/><path class="cls-2" d="M23.09,10.74H21.82a.35.35,0,0,0-.35.35v4.67l-3.6-4.86,0,0h0l0,0H16.31a.35.35,0,0,0-.35.35V19a.35.35,0,0,0,.35.35h1.27a.35.35,0,0,0,.35-.35V14.28l3.6,4.88.09.08h0l0,0h1.44a.35.35,0,0,0,.35-.35V11.09a.35.35,0,0,0-.35-.35"/><path class="cls-2" d="M11.33,17.33H7.89V11.09a.35.35,0,0,0-.35-.35H6.27a.35.35,0,0,0-.35.35V19h0a.37.37,0,0,0,.1.25H6a.34.34,0,0,0,.24.09h5.06a.35.35,0,0,0,.35-.35V17.69a.36.36,0,0,0-.35-.36"/><path class="cls-2" d="M30.08,12.71a.35.35,0,0,0,.35-.35V11.09a.35.35,0,0,0-.35-.35H25a.35.35,0,0,0-.24.1h0a.35.35,0,0,0-.1.24h0V19h0a.37.37,0,0,0,.1.25h0a.34.34,0,0,0,.24.09h5.06a.35.35,0,0,0,.35-.35V17.69a.36.36,0,0,0-.35-.36H26.64V16h3.44a.36.36,0,0,0,.35-.36V14.39a.35.35,0,0,0-.35-.35H26.64V12.71Z"/></g></symbol></defs><g id="レイヤー_2" data-name="レイヤー 2"><g id="design2"><g id="ico_line"><circle class="cls-2" cx="25" cy="25" r="25"/><use width="36.08" height="34.38" transform="translate(9.96 12.08) scale(0.83)" xlink:href="#新規シンボル_10"/></g></g></g></svg>