<svg xmlns="http://www.w3.org/2000/svg" xmlns:xlink="http://www.w3.org/1999/xlink" viewBox="0 0 40 40"><defs><style>.cls-1{fill:#fff;}.cls-2{fill:#1a1a1a;}</style><symbol id="新規シンボル_5" data-name="新規シンボル 5" viewBox="0 0 60 60"><circle class="cls-1" cx="30" cy="30" r="30"/><path class="cls-2" d="M37.75,14.82h-4c-4.52,0-7.44,3-7.44,7.63V26h-4a.63.63,0,0,0-.63.63v5.1a.63.63,0,0,0,.63.63h4V45.19a.64.64,0,0,0,.64.63H32.2a.63.63,0,0,0,.63-.63V32.33h4.73a.63.63,0,0,0,.63-.63V26.6a.62.62,0,0,0-.63-.63H32.83V23c0-1.43.34-2.16,2.21-2.16h2.71a.63.63,0,0,0,.63-.63V15.46A.64.64,0,0,0,37.75,14.82Z"/></symbol></defs><g id="レイヤー_2" data-name="レイヤー 2"><g id="design2"><use id="ico_fb_wh" width="60" height="60" transform="scale(0.67)" xlink:href="#新規シンボル_5"/></g></g></svg>