<svg xmlns="http://www.w3.org/2000/svg" xmlns:xlink="http://www.w3.org/1999/xlink" viewBox="0 0 40 40"><defs><style>.cls-1{fill:#fff;}.cls-2{fill:#1a1a1a;}</style><symbol id="新規シンボル_6" data-name="新規シンボル 6" viewBox="0 0 60 60"><circle class="cls-1" cx="30" cy="30" r="30"/><path class="cls-2" d="M44.88,22.51a11.5,11.5,0,0,1-2,.66,6.18,6.18,0,0,0,1.63-2.59h0a.32.32,0,0,0-.48-.37h0a11.72,11.72,0,0,1-3,1.24.58.58,0,0,1-.19,0,.73.73,0,0,1-.52-.21,6.22,6.22,0,0,0-4.09-1.54,6.57,6.57,0,0,0-2,.3,6,6,0,0,0-4,4.32,6.48,6.48,0,0,0-.14,2.27.22.22,0,0,1-.06.18.22.22,0,0,1-.17.07h0A16.18,16.18,0,0,1,18.7,20.92h0a.33.33,0,0,0-.53,0h0a6.18,6.18,0,0,0,1,7.52,5.37,5.37,0,0,1-1.41-.55h0a.32.32,0,0,0-.48.28h0a6.18,6.18,0,0,0,3.61,5.7h-.14a5.31,5.31,0,0,1-1-.1h0a.33.33,0,0,0-.37.42h0a6.2,6.2,0,0,0,4.9,4.21,11.44,11.44,0,0,1-6.39,1.94h-.72a.47.47,0,0,0-.46.36.5.5,0,0,0,.24.54,17.35,17.35,0,0,0,15.8.75,16,16,0,0,0,5.33-4,17.62,17.62,0,0,0,4.38-11.45V26.5a1,1,0,0,1,.39-.82A12.16,12.16,0,0,0,45.28,23h0a.32.32,0,0,0-.4-.47Z"/></symbol></defs><g id="レイヤー_2" data-name="レイヤー 2"><g id="design2"><use id="ico_twitter_wh" width="60" height="60" transform="scale(0.67)" xlink:href="#新規シンボル_6"/></g></g></svg>